<svg width="45" height="45" viewBox="0 0 45 45" fill="none" xmlns="http://www.w3.org/2000/svg">
<rect width="45" height="45" rx="12" fill="#5C9B96"/>
<path d="M23 11C24.4587 11 25.8576 11.5795 26.8891 12.6109C27.9205 13.6424 28.5 15.0413 28.5 16.5C28.5 17.9587 27.9205 19.3576 26.8891 20.3891C25.8576 21.4205 24.4587 22 23 22C21.5413 22 20.1424 21.4205 19.1109 20.3891C18.0795 19.3576 17.5 17.9587 17.5 16.5C17.5 15.0413 18.0795 13.6424 19.1109 12.6109C20.1424 11.5795 21.5413 11 23 11ZM23 24.75C29.0775 24.75 34 27.2113 34 30.25V33H12V30.25C12 27.2113 16.9225 24.75 23 24.75Z" fill="white"/>
</svg>
